<?xml version="1.0" encoding="UTF-8"?>
<svg id="Capa_1" data-name="Capa 1" xmlns="http://www.w3.org/2000/svg" viewBox="0 0 1024 1024">
  <defs>
    <style>
      .cls-1, .cls-2 {
        fill: #1c3e1e;
      }

      .cls-3 {
        fill: #ef8210;
      }

      .cls-2 {
        font-family: MyriadPro-Regular, 'Myriad Pro';
        font-size: 51.24px;
      }

      .cls-4 {
        fill: #869926;
      }

      .cls-5 {
        fill: #1f6c30;
      }
    </style>
  </defs>
  <g>
    <g>
      <path class="cls-3" d="M569.7,402.12c.47-.2.96-.37,1.44-.53l5.6-1.82"/>
      <path class="cls-3" d="M629.91,349.95l-5.05-1.29c-2.77-.7-5.58-1.24-8.42-1.6"/>
      <polyline class="cls-3" points="666.97 306.08 670.7 307.28 675.24 308.91"/>
      <path class="cls-3" d="M749.54,434.15s-7.97-6.76-8.35-6.88-7.34-7.62-7.34-7.62l-5.94-8.36-.13-.21c-2.69-4.2-4.99-8.62-6.87-13.21l-.43-1.04s-.04-.1-.05-.14l-1.87-5.43-.07-.24c-1.9-6.46-3.2-13.08-3.86-19.77l-.25-2.48v-14.26l1.24-9.55,4.07-15.03,5.21-14.05c.91-2.46,1.98-4.86,3.2-7.19l3.86-7.39,6.69-9.88,11.64-15.75,5.11-7v13.73s-4.21,5.25-4.21,5.25l-4.77,6.29-7.32,9.76-5.79,9.92-2.42,5.48c-2.47,5.61-4.63,11.34-6.47,17.17l-.22.69c-.62,1.97-1.09,3.99-1.41,6.03l-1.71,10.95c-.47,3.01-.72,6.04-.75,9.08l-.06,5.31c-.04,4.21.29,8.42.99,12.57l.09.5c1.28,7.5,3.31,14.87,6.06,21.98l.79,2.03,6.68,11.91,14.65,16.82Z"/>
      <path class="cls-3" d="M730.71,434.89l-3.39,1.2-1.63.57-.89.31-4.59,1.63c-.51.18-1.03.34-1.56.48l-8.33,2.19c-.46.12-.92.22-1.38.31l-8.29,1.56-12.67,1.93c-.68.1-1.37.17-2.05.2l-11.63.55h-10.26c-.92,0-1.85-.06-2.76-.19l-12.18-1.71c-.84-.12-1.66-.29-2.47-.51l-10.29-2.82c-.54-.15-1.08-.32-1.6-.51l-8.38-3.09c-.32-.12-.65-.25-.96-.38l-6.96-2.99c-.74-.32-1.45-.68-2.14-1.08l-12.68-7.42-8.8-5.66c-.48-.31-.97-.59-1.48-.86-1.77-.93-6.05-3.17-6.38-3.27-.31-.1-4.52-2.25-6.64-3.33-.8-.41-1.64-.77-2.49-1.06l-4.08-1.42c-.34-.12-.68-.23-1.03-.33-1.72-.49-7.1-2.03-7.46-2.03-.42,0-6.02-.68-6.02-.68l10.49-4.33c.47-.2.96-.37,1.44-.53l5.6-1.82c.81-.26,1.65-.47,2.49-.63l8.71-1.61c1.19-.22,2.4-.33,3.61-.33l5.93-.34c3.04-.18,6.1-.14,9.13.11l2.75.23c1.19,0,2.38.11,3.55.32l6.14,1.12c.68.12,1.36.28,2.02.48l7.66,2.24c2.36.69,4.56,1.81,6.48,3.31h0s-15.43-3.02-15.43-3.02c-.64-.13-1.29-.22-1.94-.28l-5.45-.52c-.37-.04-.74-.06-1.12-.07l-6.91-.26h-5.89c-1.76,0-3.52.07-5.28.21l-4.39.35c-.81.07-1.62.18-2.42.35l-3.8.78-2.81.73-1.8.51s-2.02.69-2.13.69-1.05.25-1.05.25c0,0-.41.33-.45.44s1.38.84,1.38.84l.94.19c.79.16,1.58.37,2.34.63l2.63.89,2.2.72c.61.2,1.2.43,1.78.68l1.43.63c.56.24,1.1.51,1.63.81l12.41,6.9,7.75,4.39,7.31,4.2c.49.28,1,.55,1.51.78l7.53,3.49,8.72,3.65c.55.23,1.11.44,1.68.62l9.05,2.86c.38.12.77.23,1.16.33l3.91.98c.49.12.99.23,1.5.31l7.15,1.21c.46.08.93.14,1.4.19l9.85.95,8.5.44c.42.02.84.03,1.25.03l11.44-.13c.38,0,.77-.02,1.15-.05l7.77-.54,10.19-1.14c.37-.04.73-.09,1.1-.15l8.01-1.35c.76-.13,1.5-.3,2.24-.51l3.01-.88,6.43-1.9Z"/>
      <path class="cls-3" d="M715.62,432.75l-12.81-1.77h-.09c-3.15-.45-6.27-1.11-9.32-1.99l-9.01-2.6-5.65-1.83c-1.86-.6-3.69-1.3-5.48-2.09l-8.82-3.88-9.49-5.12-6.65-4.74c-1.24-.88-2.42-1.83-3.55-2.85l-10.13-9.12-8.02-9.83-7.53-10.95-7.59-10.84-7.34-9.08c-.06-.08-.72-.88-.8-.95l-1.88-1.33c-1.27-1.04-3.62-2.32-3.62-2.32l8.98.3h5.76l7.23.42h0c2.69.16,5.35.57,7.96,1.24l1.12.29,4.21,1.14,7.63,2.52,5.77,2.33,2.15,1.14,3.58,1.84,3.55,2.16-6.14-5.59-1.06-.67c-2.62-1.67-5.37-3.14-8.23-4.4l-3.12-1.37-7.32-2.85-5.05-1.29c-2.77-.7-5.58-1.24-8.42-1.6l-4.26-.54-7.15-.42h-1.84c-3.53,0-7.06.29-10.54.87l-7.86,1.31,5.6,4.02,4.99,4.52,8.09,8.33,7.06,9.83,5.51,7.95,5.34,7.03,5.51,6.81,8.32,7.92,4.08,3.35,1.91,1.59c1.94,1.61,4.02,3.06,6.21,4.32l6.77,3.88,8.96,4.52,7.49,2.85,12.28,3.69c2.2.66,4.45,1.15,6.74,1.47l1.39.19,5.87.6,6.53.83,12.17.8Z"/>
      <path class="cls-3" d="M743.75,432.56s-11.63-1.87-12.22-2.06-17.95-6.3-17.95-6.3l-10.9-5.2-11.1-7.13-12.68-10.59-8.72-10.4-4.02-5.52c-1.28-1.75-2.42-3.59-3.42-5.51l-3.05-5.83-3.71-9.33-2.81-9.49c-.8-2.7-1.37-5.46-1.72-8.25l-.12-.93-.68-4.06-.27-2.87-.64-4.59-.47-3.27-.18-1.28c-.35-2.5-.91-4.96-1.67-7.37h0s-1.36-5.92-1.36-5.92l-1.23-4.37-2.68-6.76-1.68-3.62h4.91l5.73.53,6.04,1.02.5.11c2.27.51,4.52,1.1,6.74,1.77l2.57.77,3.73,1.19,4.55,1.63,5.88,2.72c2.44,1.13,4.81,2.41,7.09,3.82l1.13.7,3.45,2.12,1.47,1.01c1.51,1.03,2.96,2.13,4.36,3.3l.99.82,2.32,2.08,2.55,2.65,2.77,3.14,2.32,2.61,1.18,1.68,1.41,2.3,1.41,2.3.64,1.02,1.42,3.8-5.79-6.75-2.59-2.78-4.27-3.67-3.86-3.18-6.73-4.51-5.04-2.71c-1.52-.82-3.08-1.55-4.68-2.21l-1.96-.81c-2.24-.92-4.54-1.71-6.89-2.35l-2.75-.76s-8.32-1.81-8.45-1.86c-.08-.03-1.45-.17-2.61-.28-1.07-.11-2.13-.18-3.2-.21l-2.6-.08.68,2.83.82,3.14.55,3.22,1.09,7.55.82,9.05,1.18,10.38.24,1.43c.2,1.22.46,2.44.75,3.64l.87,3.54,1.82,6.27,3.5,9.05,4.09,7.69,3.77,5.74,3.18,4.46,5.55,6.4,4.41,4.46,5.36,4.99,5.95,4.81,6.41,4.15,4.41,2.78,8.91,4.81,6.18,2.78,5.95,2.47,2.82,1.15,1.06.37c2.9,1.02,5.86,1.85,8.87,2.49l.32.07Z"/>
      <path class="cls-3" d="M749.54,434.15s-7.97-6.76-8.35-6.88-7.34-7.62-7.34-7.62l-5.94-8.36-.13-.21c-2.69-4.2-4.99-8.62-6.87-13.21l-.43-1.04s-.04-.1-.05-.14l-1.87-5.43-.07-.24c-1.9-6.46-3.2-13.08-3.86-19.77l-.25-2.48v-14.26l1.24-9.55,4.07-15.03,5.21-14.05c.91-2.46,1.98-4.86,3.2-7.19l3.86-7.39,6.69-9.88,11.64-15.75,5.11-7v13.73s-4.21,5.25-4.21,5.25l-4.77,6.29-7.32,9.76-5.79,9.92-2.42,5.48c-2.47,5.61-4.63,11.34-6.47,17.17l-.22.69c-.62,1.97-1.09,3.99-1.41,6.03l-1.71,10.95c-.47,3.01-.72,6.04-.75,9.08l-.06,5.31c-.04,4.21.29,8.42.99,12.57l.09.5c1.28,7.5,3.31,14.87,6.06,21.98l.79,2.03,6.68,11.91,14.65,16.82Z"/>
    </g>
    <g>
      <path class="cls-3" d="M941.11,402.12c-.47-.2-.96-.37-1.44-.53l-5.6-1.82"/>
      <path class="cls-3" d="M880.9,349.95l5.05-1.29c2.77-.7,5.58-1.24,8.42-1.6"/>
      <polyline class="cls-3" points="843.84 306.08 840.11 307.28 835.57 308.91"/>
      <path class="cls-3" d="M761.27,434.15s7.97-6.76,8.35-6.88,7.34-7.62,7.34-7.62l5.94-8.36.13-.21c2.69-4.2,4.99-8.62,6.87-13.21l.43-1.04s.04-.1.05-.14l1.87-5.43.07-.24c1.9-6.46,3.2-13.08,3.86-19.77l.25-2.48v-14.26s-1.24-9.55-1.24-9.55l-4.07-15.03-5.21-14.05c-.91-2.46-1.98-4.86-3.2-7.19l-3.86-7.39-6.69-9.88-11.64-15.75-5.11-7v13.73s4.21,5.25,4.21,5.25l4.77,6.29,7.32,9.76,5.79,9.92,2.42,5.48c2.47,5.61,4.63,11.34,6.47,17.17l.22.69c.62,1.97,1.09,3.99,1.41,6.03l1.71,10.95c.47,3.01.72,6.04.75,9.08l.06,5.31c.04,4.21-.29,8.42-.99,12.57l-.09.5c-1.28,7.5-3.31,14.87-6.06,21.98l-.79,2.03-6.68,11.91-14.65,16.82Z"/>
      <path class="cls-3" d="M780.1,434.89l3.39,1.2,1.63.57.89.31,4.59,1.63c.51.18,1.03.34,1.56.48l8.33,2.19c.46.12.92.22,1.38.31l8.29,1.56,12.67,1.93c.68.1,1.37.17,2.05.2l11.63.55h10.26c.92,0,1.85-.06,2.76-.19l12.18-1.71c.84-.12,1.66-.29,2.47-.51l10.29-2.82c.54-.15,1.08-.32,1.6-.51l8.38-3.09c.32-.12.65-.25.96-.38l6.96-2.99c.74-.32,1.45-.68,2.14-1.08l12.68-7.42,8.8-5.66c.48-.31.97-.59,1.48-.86,1.77-.93,6.05-3.17,6.38-3.27.31-.1,4.52-2.25,6.64-3.33.8-.41,1.64-.77,2.49-1.06l4.08-1.42c.34-.12.68-.23,1.03-.33,1.72-.49,7.1-2.03,7.46-2.03.42,0,6.02-.68,6.02-.68l-10.49-4.33c-.47-.2-.96-.37-1.44-.53l-5.6-1.82c-.81-.26-1.65-.47-2.49-.63l-8.71-1.61c-1.19-.22-2.4-.33-3.61-.33l-5.93-.34c-3.04-.18-6.1-.14-9.13.11l-2.75.23c-1.19,0-2.38.11-3.55.32l-6.14,1.12c-.68.12-1.36.28-2.02.48l-7.66,2.24c-2.36.69-4.56,1.81-6.48,3.31h0s15.43-3.02,15.43-3.02c.64-.13,1.29-.22,1.94-.28l5.45-.52c.37-.04.74-.06,1.12-.07l6.91-.26h5.89c1.76,0,3.52.07,5.28.21l4.39.35c.81.07,1.62.18,2.42.35l3.8.78,2.81.73,1.8.51s2.02.69,2.13.69,1.05.25,1.05.25c0,0,.41.33.45.44s-1.38.84-1.38.84l-.94.19c-.79.16-1.58.37-2.34.63l-2.63.89-2.2.72c-.61.2-1.2.43-1.78.68l-1.43.63c-.56.24-1.1.51-1.63.81l-12.41,6.9-7.75,4.39-7.31,4.2c-.49.28-1,.55-1.51.78l-7.53,3.49-8.72,3.65c-.55.23-1.11.44-1.68.62l-9.05,2.86c-.38.12-.77.23-1.16.33l-3.91.98c-.49.12-.99.23-1.5.31l-7.15,1.21c-.46.08-.93.14-1.4.19l-9.85.95-8.5.44c-.42.02-.84.03-1.25.03l-11.44-.13c-.38,0-.77-.02-1.15-.05l-7.77-.54-10.19-1.14c-.37-.04-.73-.09-1.1-.15l-8.01-1.35c-.76-.13-1.5-.3-2.24-.51l-3.01-.88-6.43-1.9Z"/>
      <path class="cls-3" d="M795.19,432.75l12.81-1.77h.09c3.15-.45,6.27-1.11,9.32-1.99l9.01-2.6,5.65-1.83c1.86-.6,3.69-1.3,5.48-2.09l8.82-3.88,9.49-5.12,6.65-4.74c1.24-.88,2.42-1.83,3.55-2.85l10.13-9.12,8.02-9.83,7.53-10.95,7.59-10.84,7.34-9.08c.06-.08.72-.88.8-.95l1.88-1.33c1.27-1.04,3.62-2.32,3.62-2.32l-8.98.3h-5.76s-7.23.42-7.23.42h0c-2.69.16-5.35.57-7.96,1.24l-1.12.29-4.21,1.14-7.63,2.52-5.77,2.33-2.15,1.14-3.58,1.84-3.55,2.16,6.14-5.59,1.06-.67c2.62-1.67,5.37-3.14,8.23-4.4l3.12-1.37,7.32-2.85,5.05-1.29c2.77-.7,5.58-1.24,8.42-1.6l4.26-.54,7.15-.42h1.84c3.53,0,7.06.29,10.54.87l7.86,1.31-5.6,4.02-4.99,4.52-8.09,8.33-7.06,9.83-5.51,7.95-5.34,7.03-5.51,6.81-8.32,7.92-4.08,3.35-1.91,1.59c-1.94,1.61-4.02,3.06-6.21,4.32l-6.77,3.88-8.96,4.52-7.49,2.85-12.28,3.69c-2.2.66-4.45,1.15-6.74,1.47l-1.39.19-5.87.6-6.53.83-12.17.8Z"/>
      <path class="cls-3" d="M767.06,432.56s11.63-1.87,12.22-2.06,17.95-6.3,17.95-6.3l10.9-5.2,11.1-7.13,12.68-10.59,8.72-10.4,4.02-5.52c1.28-1.75,2.42-3.59,3.42-5.51l3.05-5.83,3.71-9.33,2.81-9.49c.8-2.7,1.37-5.46,1.72-8.25l.12-.93.68-4.06.27-2.87.64-4.59.47-3.27.18-1.28c.35-2.5.91-4.96,1.67-7.37h0s1.36-5.92,1.36-5.92l1.23-4.37,2.68-6.76,1.68-3.62h-4.91s-5.73.53-5.73.53l-6.04,1.02-.5.11c-2.27.51-4.52,1.1-6.74,1.77l-2.57.77-3.73,1.19-4.55,1.63-5.88,2.72c-2.44,1.13-4.81,2.41-7.09,3.82l-1.13.7-3.45,2.12-1.47,1.01c-1.51,1.03-2.96,2.13-4.36,3.3l-.99.82-2.32,2.08-2.55,2.65-2.77,3.14-2.32,2.61-1.18,1.68-1.41,2.3-1.41,2.3-.64,1.02-1.42,3.8,5.79-6.75,2.59-2.78,4.27-3.67,3.86-3.18,6.73-4.51,5.04-2.71c1.52-.82,3.08-1.55,4.68-2.21l1.96-.81c2.24-.92,4.54-1.71,6.89-2.35l2.75-.76s8.32-1.81,8.45-1.86c.08-.03,1.45-.17,2.61-.28,1.07-.11,2.13-.18,3.2-.21l2.6-.08-.68,2.83-.82,3.14-.55,3.22-1.09,7.55-.82,9.05-1.18,10.38-.24,1.43c-.2,1.22-.46,2.44-.75,3.64l-.87,3.54-1.82,6.27-3.5,9.05-4.09,7.69-3.77,5.74-3.18,4.46-5.55,6.4-4.41,4.46-5.36,4.99-5.95,4.81-6.41,4.15-4.41,2.78-8.91,4.81-6.18,2.78-5.95,2.47-2.82,1.15-1.06.37c-2.9,1.02-5.86,1.85-8.87,2.49l-.32.07Z"/>
      <path class="cls-3" d="M761.27,434.15s7.97-6.76,8.35-6.88,7.34-7.62,7.34-7.62l5.94-8.36.13-.21c2.69-4.2,4.99-8.62,6.87-13.21l.43-1.04s.04-.1.05-.14l1.87-5.43.07-.24c1.9-6.46,3.2-13.08,3.86-19.77l.25-2.48v-14.26s-1.24-9.55-1.24-9.55l-4.07-15.03-5.21-14.05c-.91-2.46-1.98-4.86-3.2-7.19l-3.86-7.39-6.69-9.88-11.64-15.75-5.11-7v13.73s4.21,5.25,4.21,5.25l4.77,6.29,7.32,9.76,5.79,9.92,2.42,5.48c2.47,5.61,4.63,11.34,6.47,17.17l.22.69c.62,1.97,1.09,3.99,1.41,6.03l1.71,10.95c.47,3.01.72,6.04.75,9.08l.06,5.31c.04,4.21-.29,8.42-.99,12.57l-.09.5c-1.28,7.5-3.31,14.87-6.06,21.98l-.79,2.03-6.68,11.91-14.65,16.82Z"/>
    </g>
    <path class="cls-3" d="M701.25,445.82l2.47.52c2.5.52,5.03.9,7.57,1.14l8.96.82,17.23.91c1.18.06,2.36.09,3.54.09h36.77c2.63,0,5.26-.16,7.87-.47l10.77-1.28,12.61-1.74-10.8,3.3c-2.61.8-5.26,1.43-7.94,1.91-3.62.64-8.4,1.47-8.72,1.47-.52,0-15.03,1.14-16.24,1.18-3.22.11-16.47-.05-14.68,0,.37,0-8.36-.31-13.51-.6-2.83-.16-5.61-.49-8.39-1-6.55-1.21-18.66-3.44-19.03-3.44-.52,0-8.46-2.81-8.46-2.81Z"/>
  </g>
  <path class="cls-4" d="M93.64,415.7v-153.19l20.33-1.72s24.91-1.72,25.48,18.33c.57,20.04,0,125.13,0,125.13l62.99-.57,1.95-.02v16.76c0,8.49-4.3,16.66-11.76,20.71-2.8,1.52-6.16,2.58-10.14,2.72-15.93.54-73.86-1.09-73.86-1.09h0c-8.98-5.91-14.55-15.78-14.97-26.52l-.02-.54Z"/>
  <path class="cls-4" d="M226.51,306.83v112.43s0,9.61,0,9.61c0,0,0,14.75,21.01,14.98,21.01.22,22.58,0,22.58,0v-121.37s0-4.23,0-4.23v-4.88s.26-5.91-11.46-6.02c-6.7-.06-11.16-.08-13.18-.21-1.68-.11-3.37-.17-5.06-.17l-13.89-.14Z"/>
  <path class="cls-4" d="M289.26,310.39l44.82,110.93c3.17,7.85,8.46,14.75,15.51,19.42,3.05,2.02,5.84,4.11,8.69,3.98.49-.02,2.83.07,3.32.05l19.86-.98,55.93-135.39h0c-3.93-1.15-8.01-1.73-12.1-1.73h-1.55s-7.73,0-8.04-.01c-.22-.01-8.66,0-10.1,0-.67,0-1.33.07-1.99.21h0c-3.46.73-6.78,2.03-9.81,3.85h0s0,0,0,0c-4.03,4.23-7.15,9.25-9.16,14.74v.03s-20.99,55-20.99,55l-.71,2.44-17.21-50.52-4.38-10.9h0c-1.81-3.55-4.42-6.62-7.64-8.96h0s-7.33-3.77-7.33-3.77l-.48-.2c-4.25-1.81-8.83-2.69-13.45-2.57l-25.28,1.6,2.11,2.77Z"/>
  <path class="cls-4" d="M573.28,331.66c-9.1-13.3-23.48-22-39.33-24.9-9.66-1.77-21.76-2.73-34.41-.63-39.71,6.59-66.84,45.07-58.56,84.46,2.12,10.09,6.63,20.96,14.87,32.02,32.98,44.25,107.28,11.69,107.28,11.69l2.45-2.15-18.18-25.77s-48.09,22.22-61.14-15.36l54.31-3.08c12.58-.71,24.6-6.29,32.56-16.06,7.65-9.39,11.98-22.94.16-40.21ZM532.01,357.24c-3.2,2.25-6.97,3.28-10.76,3.34l-38.11.6c1.77-25.47,21.72-28.94,33.7-28.7,6.65.14,13.07,3.35,17.2,9.1,5.56,7.74,2.1,12.75-2.03,15.65Z"/>
  <path class="cls-5" d="M378.38,609.03c-.53-8.01-1.28-53.01-1.57-71.4-.13-8.52-1.98-16.96-5.77-24.59-4.98-10.02-13.98-21.2-29.74-23.35-29.66-4.05-41.43-2.84-41.43-2.84,0,0-40.48,4.18-52.62,20.7-6.67,9.07-1.98,18.03,3.61,24.25,4.58,5.11,12.08,6.28,18.17,3.13,13.68-7.08,40.48-17.4,53.02-5.41,2.82,2.7,4.22,6.56,4.22,10.47v10.33l-30.72,1.91c-9.37.58-18.63,2.59-27.24,6.33-15.67,6.8-34.31,21.03-33.53,50.13,1.35,49.89,53.26,45.85,53.26,45.85,0,0,31.01-2.36,45.51-22.25,0,0,10.45,23.26,28.99,19.89l13.82-.34s5.73-.67,5.73-4.72v-27.98s-3.03,0-3.71-10.11ZM325.03,592.81c0,5.71-1.45,11.4-4.64,16.33-3.41,5.28-10.81,10.68-19.55,10.93l-7.94.23c-6.89.2-13.78-1.78-18.83-6.01-5.55-4.65-9.17-11.72.98-20.63,4.18-3.67,9.35-6.27,14.9-7.89,10.29-3.02,35.09-3.87,35.09-3.87v10.91Z"/>
  <path class="cls-5" d="M865.15,609.03c-.53-8.01-1.28-53.01-1.57-71.4-.13-8.52-1.98-16.96-5.77-24.59-4.98-10.02-13.98-21.2-29.74-23.35-29.66-4.05-41.43-2.84-41.43-2.84,0,0-40.48,4.18-52.62,20.7-6.67,9.07-1.97,18.03,3.61,24.25,4.58,5.11,12.08,6.28,18.17,3.13,13.68-7.08,40.48-17.4,53.02-5.41,2.82,2.7,4.22,6.56,4.22,10.47v10.33l-30.73,1.91c-9.37.58-18.63,2.59-27.24,6.33-15.67,6.8-34.31,21.03-33.53,50.13,1.35,49.89,53.26,45.85,53.26,45.85,0,0,31.01-2.36,45.51-22.25,0,0,10.45,23.26,28.99,19.89l13.82-.34s5.73-.67,5.73-4.72v-27.98s-3.03,0-3.71-10.11ZM815.72,592.81c0,5.71-1.55,11.4-4.96,16.33-3.65,5.28-11.56,10.68-20.9,10.93l-8.49.23c-7.37.2-14.73-1.78-20.14-6.01-5.94-4.65-9.8-11.72,1.05-20.63,4.47-3.67,10-6.27,15.93-7.89,11-3.02,37.53-3.87,37.53-3.87v10.91Z"/>
  <path class="cls-5" d="M695.42,504.7s-7.67,25.49-15.24,27.94c-12.32,4-41.61-19.81-51.78-1.45-6.54,11.8,8.54,16.24,20.15,17.9,9.66,1.39,19.19,3.54,28.41,6.74h0c1.78.62,3.45,1.45,5,2.51,10.32,7.07,44.74,35.68,2.98,79.61-7.95,8.37-18.57,13.82-30.05,15.09-.15.02-.31.03-.46.05h0c-19.89,2.05-39.99.06-59.09-5.86l-23.36-7.24,14.21-30.17c2-4.25,7.04-6.1,11.31-4.16l9.47,4.3c7.54,3.43,15.59,5.55,23.82,6.55,6.62.81,13.46,2.4,16.86-.56,0,0,20.48-10.26,4.11-20.47-2.74-1.71-5.8-2.84-8.95-3.53-5.51-1.2-14.82-3.2-15.18-3.2-.06,0-.36-.05-.82-.12-9.48-1.62-18.58-5.01-26.86-9.92h0c-8.5-5.04-15.54-12.21-20.43-20.8h0c-3.15-5.54-4.55-11.9-3.95-18.25,1.38-14.74,1.6-37.53,33.22-47.85,45.74-14.93,86.64,12.87,86.64,12.87Z"/>
  <path class="cls-5" d="M418.39,487.43h31.71v94.97c0,2.15.32,4.29.96,6.34h0c2.04,6.59,5.86,12.57,11.31,16.69,6.34,4.78,15.32,7.48,25.17-2.14,4-3.9,6.86-8.86,8.67-14.19h0c.32-.95.49-1.95.49-2.96v-77.81c0-11.54,9.17-20.89,20.49-20.89h30.22v118.85s4.65,7.46,7.17,9.14c2.52,1.67.87,33.01.87,33.01,0,0-.21,6-9.39,5.41-3.28-.21-8.43-.37-11.15-.46-9.07-.29-17.94-3.47-24.74-9.6-3.21-2.89-6.12-6.51-7.87-10.96l-2.85,2.62c-4,3.67-8.32,6.96-12.91,9.83h0c-4.42,2.76-9.2,4.89-14.19,6.31h0c-3.06.87-6.21,1.39-9.39,1.55h0c-15.17.75-30.26-3.81-42.18-13.42-10.6-8.55-20.42-21.69-21.34-41.29-1.35-28.65-1.42-67.14-1.3-90.45.06-11.36,9.11-20.54,20.26-20.54Z"/>
  <path class="cls-5" d="M230.72,503.72c-3.83-10.87-5.88-25.46-21.72-33.95-15.85-8.49-27.6-13.53-54.95-12.73-27.35.8-59,7.09-59,7.09v187.65h17.11s25.18.34,25.18-7.37v-50.93s31.79,4.41,49.93-4.08c18.15-8.49,29.39-18.57,29.39-18.57,0,0,5.34-8.7,14.06-26.79.51-1.06,3.83-29.44,0-40.32ZM189.45,534.32c-.43,6.3-3.1,11.31-6.18,14.54-2.72,2.86-10.18,7.19-13.86,8.42-2.59.87-11.26.98-11.55.97-2.93-.05-21.2-.42-21.2-.42v-63.92s20.04-3.2,35.95,2.5c15.91,5.7,16.78,23.13,16.78,23.13,0,0,.92,2.17.05,14.77Z"/>
  <circle class="cls-4" cx="248.31" cy="260.75" r="24.08"/>
  <g>
    <text class="cls-2" transform="translate(574.89 698.74) scale(1.21 1)"><tspan x="0" y="0">b</tspan></text>
    <path class="cls-1" d="M625.22,694.35h.12l7.75-17.43h5.91l-13.6,27.45c-.47.94-.98,1.77-1.53,2.51-.56.73-1.2,1.36-1.95,1.87s-1.63.91-2.64,1.2c-1,.28-2.19.42-3.57.42-.6,0-1.19-.02-1.81-.07-.61-.05-1.23-.13-1.86-.26l.53-3.89c.94.25,1.88.38,2.78.38,1.45,0,2.54-.32,3.25-.96.7-.64,1.36-1.56,1.94-2.74l1.78-3.7-12-22.2h6.21l8.69,17.43Z"/>
    <path class="cls-1" d="M664.5,698.07h-5.67v-36.28h5.67v36.28Z"/>
    <path class="cls-1" d="M682.64,674.47c1.51-.9,3.29-1.36,5.35-1.36,1.84,0,3.49.38,4.96,1.13,1.46.75,2.62,2,3.47,3.74.91-1.57,2.19-2.77,3.83-3.61,1.64-.84,3.44-1.26,5.39-1.26,1.75,0,3.27.26,4.52.79s2.31,1.24,3.15,2.13,1.46,1.93,1.87,3.13c.4,1.2.6,2.48.6,3.84v15.07h-5.38v-13.48c0-.99-.1-1.93-.29-2.82-.2-.89-.51-1.67-.97-2.36-.47-.68-1.07-1.23-1.84-1.64s-1.74-.62-2.92-.62-2.28.23-3.15.69c-.89.46-1.6,1.06-2.16,1.79-.55.74-.95,1.56-1.2,2.49-.24.93-.37,1.86-.37,2.82v13.12h-5.38v-14.45c0-.95-.09-1.83-.29-2.61-.19-.78-.51-1.46-.97-2.02-.47-.56-1.05-1.01-1.78-1.33s-1.62-.49-2.7-.49c-1.99,0-3.64.73-4.95,2.18-1.32,1.45-1.98,3.39-1.98,5.81v12.91h-5.39v-19.06c0-.65-.02-1.48-.06-2.51-.04-1.03-.09-1.93-.17-2.72h5.1c.07.62.13,1.31.17,2.08s.06,1.41.06,1.92h.18c.68-1.3,1.78-2.4,3.29-3.31Z"/>
    <path class="cls-1" d="M725.2,661.79h12.38c2.17,0,4.16.2,5.96.59,1.79.4,3.32,1,4.58,1.82,1.26.82,2.24,1.86,2.93,3.12.68,1.26,1.03,2.79,1.03,4.56s-.37,3.37-1.12,4.66c-.75,1.3-1.77,2.36-3.09,3.18-1.32.82-2.89,1.43-4.7,1.82-1.82.39-3.78.59-5.88.59h-6.42v15.94h-5.67v-36.28ZM730.88,677.83h6.02c1.37,0,2.65-.11,3.82-.33,1.16-.22,2.16-.56,3-1.02.84-.46,1.49-1.07,1.95-1.82.46-.75.69-1.67.69-2.76s-.24-2.01-.72-2.74c-.48-.73-1.13-1.33-1.95-1.79-.82-.46-1.8-.78-2.95-.97s-2.39-.28-3.73-.28h-6.13v11.73Z"/>
    <path class="cls-1" d="M772.72,682.34c0-1.81-.62-3.15-1.84-4.02-1.22-.87-2.85-1.31-4.87-1.31-1.53,0-2.97.26-4.33.79-1.35.53-2.49,1.21-3.41,2.02l-2.87-3.07c1.34-1.13,2.98-2.01,4.91-2.66,1.93-.65,4-.97,6.21-.97,1.95,0,3.64.25,5.08.74s2.61,1.17,3.53,2.02c.91.85,1.6,1.86,2.06,3.02.46,1.16.69,2.41.69,3.74v10.61c0,.82.03,1.68.08,2.59.06.91.16,1.65.32,2.23h-4.87c-.31-1.16-.47-2.32-.47-3.49h-.17c-1,1.3-2.25,2.31-3.75,3.02-1.51.72-3.3,1.08-5.36,1.08-1.07,0-2.18-.13-3.35-.38-1.17-.25-2.23-.67-3.18-1.26-.96-.58-1.75-1.35-2.38-2.31-.63-.95-.95-2.13-.95-3.54,0-1.84.56-3.3,1.67-4.38,1.1-1.08,2.56-1.9,4.35-2.46,1.8-.56,3.82-.93,6.08-1.1,2.25-.17,4.52-.26,6.82-.26v-.66ZM771.4,686.49c-1.34,0-2.72.05-4.16.15-1.43.1-2.73.31-3.9.61-1.17.31-2.13.77-2.89,1.38s-1.15,1.43-1.15,2.46c0,.72.17,1.31.49,1.79.33.48.76.87,1.3,1.18.53.3,1.12.52,1.77.64.65.12,1.32.18,2.01.18,2.53,0,4.46-.68,5.82-2.02,1.35-1.35,2.03-3.05,2.03-5.1v-1.28h-1.32Z"/>
    <path class="cls-1" d="M806.02,698.07c-.08-.61-.14-1.31-.18-2.08-.04-.77-.06-1.41-.06-1.92h-.11c-.69,1.3-1.85,2.4-3.47,3.3-1.62.9-3.43,1.36-5.42,1.36-1.75,0-3.27-.26-4.55-.77-1.28-.51-2.33-1.22-3.15-2.13-.82-.9-1.44-1.95-1.84-3.15-.4-1.2-.6-2.48-.6-3.84v-15.07h5.38v13.43c0,.99.09,1.94.26,2.84s.49,1.7.94,2.38c.47.68,1.09,1.23,1.89,1.64.8.41,1.84.61,3.1.61,2.17,0,3.94-.73,5.27-2.18,1.34-1.45,2.01-3.39,2.01-5.82v-12.91h5.39v19.06c0,.65.02,1.48.06,2.51.04,1.02.09,1.93.17,2.71h-5.09Z"/>
    <path class="cls-1" d="M834.9,679.93c-.62-.89-1.47-1.61-2.58-2.18-1.11-.56-2.35-.85-3.72-.85-.62,0-1.22.06-1.84.18-.61.12-1.16.31-1.63.56-.48.26-.86.58-1.15.98-.28.39-.43.88-.43,1.46,0,1.03.52,1.78,1.55,2.28,1.04.5,2.58.95,4.65,1.36,1.3.28,2.5.6,3.61.98s2.07.85,2.89,1.41,1.46,1.24,1.92,2.02c.46.79.69,1.71.69,2.77,0,1.43-.31,2.65-.92,3.64-.61.99-1.42,1.8-2.43,2.44-1.01.63-2.16,1.08-3.46,1.36-1.31.28-2.64.41-4.02.41-2.06,0-4.08-.36-6.05-1.08s-3.6-1.81-4.9-3.28l3.84-2.92c.72.95,1.73,1.76,3,2.41,1.28.65,2.69.98,4.22.98.69,0,1.34-.06,1.98-.18.63-.12,1.2-.32,1.72-.59.51-.28.92-.63,1.23-1.08.31-.44.46-1,.46-1.69,0-1.13-.6-1.96-1.8-2.51s-2.98-1.06-5.31-1.54c-.91-.2-1.84-.45-2.78-.74-.93-.29-1.78-.69-2.55-1.21s-1.38-1.15-1.87-1.92c-.48-.77-.71-1.71-.71-2.84,0-1.3.29-2.42.89-3.36.59-.94,1.36-1.71,2.32-2.31.95-.6,2.04-1.04,3.27-1.33,1.22-.29,2.48-.43,3.78-.43,1.95,0,3.83.34,5.65,1.03,1.81.68,3.22,1.67,4.21,2.97l-3.72,2.82Z"/>
    <path class="cls-1" d="M862.58,682.34c0-1.81-.61-3.15-1.83-4.02s-2.85-1.31-4.87-1.31c-1.53,0-2.98.26-4.33.79-1.36.53-2.5,1.21-3.41,2.02l-2.86-3.07c1.33-1.13,2.97-2.01,4.9-2.66,1.93-.65,4-.97,6.22-.97,1.95,0,3.64.25,5.08.74,1.43.5,2.6,1.17,3.52,2.02.92.85,1.6,1.86,2.07,3.02.46,1.16.68,2.41.68,3.74v10.61c0,.82.03,1.68.09,2.59.06.91.16,1.65.31,2.23h-4.87c-.31-1.16-.46-2.32-.46-3.49h-.17c-1,1.3-2.25,2.31-3.76,3.02s-3.29,1.08-5.35,1.08c-1.07,0-2.19-.13-3.36-.38-1.17-.25-2.22-.67-3.18-1.26-.95-.58-1.74-1.35-2.38-2.31-.63-.95-.94-2.13-.94-3.54,0-1.84.55-3.3,1.66-4.38s2.56-1.9,4.36-2.46c1.79-.56,3.82-.93,6.07-1.1,2.26-.17,4.53-.26,6.82-.26v-.66ZM861.27,686.49c-1.33,0-2.72.05-4.15.15-1.44.1-2.73.31-3.9.61-1.17.31-2.14.77-2.89,1.38-.76.61-1.15,1.43-1.15,2.46,0,.72.16,1.31.49,1.79s.76.87,1.29,1.18c.53.3,1.13.52,1.78.64.64.12,1.32.18,2.01.18,2.52,0,4.46-.68,5.81-2.02,1.36-1.35,2.03-3.05,2.03-5.1v-1.28h-1.32Z"/>
  </g>
</svg>